<mxfile host="app.diagrams.net" agent="Mozilla/5.0 (Windows NT 10.0; Win64; x64) AppleWebKit/537.36 (KHTML, like Gecko) Chrome/126.0.0.0 Whale/3.27.254.15 Safari/537.36" version="24.7.14">
  <diagram name="페이지-1" id="zW9DXNl0tcoisdwMt038">
    <mxGraphModel dx="1628" dy="757" grid="1" gridSize="10" guides="1" tooltips="1" connect="1" arrows="1" fold="1" page="1" pageScale="1" pageWidth="827" pageHeight="1169" math="0" shadow="0">
      <root>
        <mxCell id="0" />
        <mxCell id="1" parent="0" />
        <mxCell id="ZHvcm5i2CdSZqGdI11Uu-8" value="" style="edgeStyle=orthogonalEdgeStyle;rounded=0;orthogonalLoop=1;jettySize=auto;html=1;" edge="1" parent="1" source="ZHvcm5i2CdSZqGdI11Uu-1" target="ZHvcm5i2CdSZqGdI11Uu-7">
          <mxGeometry relative="1" as="geometry" />
        </mxCell>
        <mxCell id="ZHvcm5i2CdSZqGdI11Uu-10" style="edgeStyle=orthogonalEdgeStyle;rounded=0;orthogonalLoop=1;jettySize=auto;html=1;entryX=0.5;entryY=0;entryDx=0;entryDy=0;" edge="1" parent="1" source="ZHvcm5i2CdSZqGdI11Uu-1" target="ZHvcm5i2CdSZqGdI11Uu-9">
          <mxGeometry relative="1" as="geometry" />
        </mxCell>
        <mxCell id="ZHvcm5i2CdSZqGdI11Uu-12" style="edgeStyle=orthogonalEdgeStyle;rounded=0;orthogonalLoop=1;jettySize=auto;html=1;entryX=0.5;entryY=0;entryDx=0;entryDy=0;" edge="1" parent="1" source="ZHvcm5i2CdSZqGdI11Uu-1" target="ZHvcm5i2CdSZqGdI11Uu-11">
          <mxGeometry relative="1" as="geometry" />
        </mxCell>
        <mxCell id="ZHvcm5i2CdSZqGdI11Uu-22" style="edgeStyle=orthogonalEdgeStyle;rounded=0;orthogonalLoop=1;jettySize=auto;html=1;entryX=0;entryY=0.5;entryDx=0;entryDy=0;" edge="1" parent="1" source="ZHvcm5i2CdSZqGdI11Uu-1" target="ZHvcm5i2CdSZqGdI11Uu-21">
          <mxGeometry relative="1" as="geometry" />
        </mxCell>
        <mxCell id="ZHvcm5i2CdSZqGdI11Uu-1" value="git" style="rounded=0;whiteSpace=wrap;html=1;" vertex="1" parent="1">
          <mxGeometry x="224" y="10" width="120" height="60" as="geometry" />
        </mxCell>
        <mxCell id="ZHvcm5i2CdSZqGdI11Uu-14" style="edgeStyle=orthogonalEdgeStyle;rounded=0;orthogonalLoop=1;jettySize=auto;html=1;" edge="1" parent="1" source="ZHvcm5i2CdSZqGdI11Uu-7" target="ZHvcm5i2CdSZqGdI11Uu-13">
          <mxGeometry relative="1" as="geometry" />
        </mxCell>
        <mxCell id="ZHvcm5i2CdSZqGdI11Uu-7" value="unity file" style="rounded=0;whiteSpace=wrap;html=1;" vertex="1" parent="1">
          <mxGeometry x="224" y="120" width="120" height="60" as="geometry" />
        </mxCell>
        <mxCell id="ZHvcm5i2CdSZqGdI11Uu-9" value="DB(excel)" style="rounded=0;whiteSpace=wrap;html=1;" vertex="1" parent="1">
          <mxGeometry x="50" y="120" width="120" height="60" as="geometry" />
        </mxCell>
        <mxCell id="ZHvcm5i2CdSZqGdI11Uu-18" style="edgeStyle=orthogonalEdgeStyle;rounded=0;orthogonalLoop=1;jettySize=auto;html=1;" edge="1" parent="1" source="ZHvcm5i2CdSZqGdI11Uu-11" target="ZHvcm5i2CdSZqGdI11Uu-17">
          <mxGeometry relative="1" as="geometry" />
        </mxCell>
        <mxCell id="ZHvcm5i2CdSZqGdI11Uu-20" style="edgeStyle=orthogonalEdgeStyle;rounded=0;orthogonalLoop=1;jettySize=auto;html=1;entryX=0.5;entryY=0;entryDx=0;entryDy=0;" edge="1" parent="1" target="ZHvcm5i2CdSZqGdI11Uu-19">
          <mxGeometry relative="1" as="geometry">
            <mxPoint x="460" y="200" as="sourcePoint" />
          </mxGeometry>
        </mxCell>
        <mxCell id="ZHvcm5i2CdSZqGdI11Uu-11" value="art&lt;div&gt;(key visual)&lt;/div&gt;" style="rounded=0;whiteSpace=wrap;html=1;" vertex="1" parent="1">
          <mxGeometry x="400" y="120" width="120" height="60" as="geometry" />
        </mxCell>
        <mxCell id="ZHvcm5i2CdSZqGdI11Uu-16" style="edgeStyle=orthogonalEdgeStyle;rounded=0;orthogonalLoop=1;jettySize=auto;html=1;entryX=0.5;entryY=0;entryDx=0;entryDy=0;" edge="1" parent="1" source="ZHvcm5i2CdSZqGdI11Uu-13" target="ZHvcm5i2CdSZqGdI11Uu-15">
          <mxGeometry relative="1" as="geometry" />
        </mxCell>
        <mxCell id="ZHvcm5i2CdSZqGdI11Uu-13" value="script&lt;div&gt;(static)&lt;/div&gt;" style="rounded=0;whiteSpace=wrap;html=1;" vertex="1" parent="1">
          <mxGeometry x="224" y="220" width="120" height="60" as="geometry" />
        </mxCell>
        <mxCell id="ZHvcm5i2CdSZqGdI11Uu-15" value="private script" style="rounded=0;whiteSpace=wrap;html=1;" vertex="1" parent="1">
          <mxGeometry x="224" y="320" width="120" height="60" as="geometry" />
        </mxCell>
        <mxCell id="ZHvcm5i2CdSZqGdI11Uu-17" value="3D" style="rounded=0;whiteSpace=wrap;html=1;" vertex="1" parent="1">
          <mxGeometry x="400" y="220" width="120" height="60" as="geometry" />
        </mxCell>
        <mxCell id="ZHvcm5i2CdSZqGdI11Uu-19" value="2D" style="rounded=0;whiteSpace=wrap;html=1;" vertex="1" parent="1">
          <mxGeometry x="550" y="220" width="120" height="60" as="geometry" />
        </mxCell>
        <mxCell id="ZHvcm5i2CdSZqGdI11Uu-21" value="Readme.md&lt;div&gt;(notion)&lt;/div&gt;" style="rounded=0;whiteSpace=wrap;html=1;" vertex="1" parent="1">
          <mxGeometry x="650" y="10" width="120" height="60" as="geometry" />
        </mxCell>
      </root>
    </mxGraphModel>
  </diagram>
</mxfile>
